<?xml version="1.0" encoding="iso-8859-1"?>
<!-- Generator: Adobe Illustrator 17.1.0, SVG Export Plug-In . SVG Version: 6.00 Build 0)  -->
<!DOCTYPE svg PUBLIC "-//W3C//DTD SVG 1.1//EN" "http://www.w3.org/Graphics/SVG/1.1/DTD/svg11.dtd">
<svg version="1.1" id="Capa_1" xmlns="http://www.w3.org/2000/svg" xmlns:xlink="http://www.w3.org/1999/xlink" x="0px" y="0px"
	 viewBox="0 0 298.5 298.5" style="enable-background:new 0 0 298.5 298.5;" xml:space="preserve">
<path d="M239.582,145.826c-4.256,0-8.403,0.464-12.405,1.326c-1.355-4.542-2.713-9.181-4.047-13.855
	c-17.191-60.235-16.518-77.457-15.589-81.897c2.85-0.752,5.149-3.054,5.788-6.09c0.84-3.997-1.465-7.984-5.347-9.252
	c-1.021-0.331-25.243-7.846-48.291,18.881c-2.885,3.346-2.512,8.397,0.834,11.283c3.347,2.886,8.397,2.511,11.283-0.834
	c7.115-8.251,14.046-12.004,19.573-13.576c-0.204,2.33-0.25,5.351-0.092,8.351h-0.039c0.547,51-46.956,87.654-61,97.36
	L80.484,64.875l16.703-5.726c3.467-1.191,5.564-4.909,4.961-8.525c-0.604-3.615-3.731-6.461-7.397-6.461H48.584
	c-5.974,0-10.834,5.061-10.834,11.034c0,9.52,7.734,17.365,17.242,17.365c1.906,0,3.797-0.267,5.62-0.893l5.496-1.862l10.598,19.746
	c-0.338,0.607-0.601,1.273-0.765,1.982l-12.543,54.463c-0.848-0.064-1.7-0.115-2.557-0.143c-16.821-0.518-32.6,5.878-44.246,17.901
	C5.399,175.314-0.484,190.554,0.031,206.666c0.988,30.955,26.011,55.977,56.966,56.965c0.645,0.021,1.282,0.031,1.923,0.031
	c16.093,0,31.124-6.368,42.323-17.932c8.069-8.331,13.361-18.579,15.504-29.684l12.328,0.051c4.399,4.943,10.803,8.065,17.925,8.065
	c13.233,0,24-10.767,24-24c0-4.651-1.334-8.995-3.635-12.677l41.986-44.22c0.919,3.159,1.844,6.289,2.767,9.374
	c-18.688,9.89-31.456,29.529-31.456,52.103c0,32.488,26.431,58.919,58.919,58.919c32.487,0,58.918-26.431,58.918-58.919
	C298.5,172.256,272.069,145.826,239.582,145.826z M198.083,100.901c1.822,7.784,4.003,16.326,6.529,25.573l-48.783,51.378
	c-2.735-1.086-5.712-1.69-8.829-1.69c-2.182,0-4.295,0.298-6.306,0.847l-3.295-6.135
	C148.199,163.693,182.293,138.765,198.083,100.901z M70.473,200.709c-0.879-1.56-2.019-2.95-3.357-4.124l7.568-32.839
	c15.281,5.895,26.463,20.109,27.972,37.052L70.473,200.709z M90.469,235.295c-8.349,8.619-19.553,13.367-31.549,13.367
	c-0.48,0-0.96-0.008-1.444-0.023c-23.068-0.736-41.716-19.383-42.452-42.451c-0.384-12.018,4.001-23.38,12.346-31.996
	c8.35-8.619,19.554-13.367,31.549-13.367c0.353,0,0.707,0.009,1.062,0.017l-7.466,32.416C45.883,195.114,41,201.197,41,208.412
	c0,8.685,7.065,15.75,15.75,15.75c5.993,0,11.212-3.366,13.874-8.305l30.764,0.127C99.498,223.176,95.794,229.797,90.469,235.295z
	 M117.695,200.841c-1.578-24.07-17.688-44.246-39.62-51.809l9.178-39.827l40.89,76.138c-3.217,4.084-5.144,9.23-5.144,14.82
	c0,0.232,0.011,0.462,0.018,0.693L117.695,200.841z M239.582,248.662c-24.217,0-43.919-19.702-43.919-43.919
	c0-15.797,8.387-29.668,20.939-37.407c7.705,24.798,14.25,43.688,14.341,43.95c1.148,3.306,4.245,5.378,7.558,5.378
	c0.87,0,1.756-0.143,2.624-0.444c4.174-1.449,6.383-6.008,4.934-10.182c-0.09-0.259-6.74-19.453-14.492-44.467
	c2.601-0.482,5.278-0.746,8.016-0.746c24.217,0,43.918,19.701,43.918,43.918S263.799,248.662,239.582,248.662z"/>
<g>
</g>
<g>
</g>
<g>
</g>
<g>
</g>
<g>
</g>
<g>
</g>
<g>
</g>
<g>
</g>
<g>
</g>
<g>
</g>
<g>
</g>
<g>
</g>
<g>
</g>
<g>
</g>
<g>
</g>
</svg>
